<svg width="465" height="422" viewBox="0 0 465 422" fill="none" xmlns="http://www.w3.org/2000/svg">
<circle cx="109.5" cy="109.5" r="109.5" fill="white" fill-opacity="0.05"/>
<circle cx="109.5" cy="109.5" r="109" stroke="white" stroke-opacity="0.05"/>
<rect x="12" y="12" width="195" height="195" rx="97.5" fill="white" fill-opacity="0.05"/>
<rect x="12.5" y="12.5" width="194" height="194" rx="97" stroke="white" stroke-opacity="0.05"/>
<path d="M75.42 72.5H78.6V114.5H73.26V76.52C71.4 78.56 67.98 80.36 64.56 81.08L64.14 79.88C68.16 78.86 73.02 75.68 75.42 72.5ZM108.345 92.54C113.505 94.88 117.825 97.76 117.825 103.4C117.825 110.42 111.345 115.1 103.065 115.1C94.9645 115.1 88.5445 110.66 88.5445 104.36C88.5445 99.86 91.9045 95.36 96.7045 93.2C92.8045 91.04 89.5645 88.1 89.5645 83.24C89.5645 76.58 95.5045 71.9 103.125 71.9C110.625 71.9 116.085 76.46 116.085 82.22C116.085 86.6 113.025 90.56 108.345 92.54ZM93.8245 81.14C93.8245 86.24 98.9845 88.58 105.045 91.1L107.205 92C111.225 90.2 113.865 86.42 113.865 82.4C113.865 77.18 109.545 73.16 103.545 73.16C98.0845 73.16 93.8245 76.58 93.8245 81.14ZM102.765 113.84C109.005 113.84 113.565 110.48 113.565 105.86C113.565 100.7 107.925 98.18 102.165 95.78C100.785 95.18 99.2845 94.52 97.9045 93.8C93.5845 95.72 90.7645 100.1 90.7645 104.24C90.7645 109.76 95.9245 113.84 102.765 113.84ZM137.099 71.9C146.279 71.9 153.059 79.16 153.059 91.16C153.059 103.7 145.679 115.1 135.239 115.1C129.539 115.1 124.979 111.5 124.979 106.94H126.299C126.299 110.9 129.659 113.72 134.279 113.72C142.199 113.72 146.999 105.98 147.419 93.14C145.919 96.62 141.779 99.26 136.379 99.26C128.519 99.26 122.219 93.56 122.219 85.82C122.219 77.84 128.819 71.9 137.099 71.9ZM137.519 97.82C143.759 97.82 147.359 93.14 147.359 85.58C147.359 77.9 143.639 73.1 137.519 73.1C131.399 73.1 127.799 78.02 127.799 85.64C127.799 93.26 131.399 97.82 137.519 97.82Z" fill="#E7F940"/>
<path d="M52.48 142.98C52.8267 142.247 53.3733 141.64 54.12 141.16C54.88 140.667 55.78 140.42 56.82 140.42C57.8067 140.42 58.6933 140.653 59.48 141.12C60.28 141.573 60.9 142.227 61.34 143.08C61.7933 143.92 62.02 144.9 62.02 146.02C62.02 147.14 61.7933 148.127 61.34 148.98C60.9 149.833 60.28 150.493 59.48 150.96C58.6933 151.427 57.8067 151.66 56.82 151.66C55.7933 151.66 54.9 151.42 54.14 150.94C53.38 150.447 52.8267 149.833 52.48 149.1V156.66H51.1V140.58H52.48V142.98ZM60.6 146.02C60.6 145.113 60.42 144.333 60.06 143.68C59.7133 143.013 59.2333 142.507 58.62 142.16C58.0067 141.813 57.3133 141.64 56.54 141.64C55.7933 141.64 55.1067 141.82 54.48 142.18C53.8667 142.54 53.38 143.053 53.02 143.72C52.66 144.387 52.48 145.16 52.48 146.04C52.48 146.92 52.66 147.693 53.02 148.36C53.38 149.027 53.8667 149.54 54.48 149.9C55.1067 150.26 55.7933 150.44 56.54 150.44C57.3133 150.44 58.0067 150.267 58.62 149.92C59.2333 149.56 59.7133 149.047 60.06 148.38C60.42 147.7 60.6 146.913 60.6 146.02ZM63.9561 146.02C63.9561 144.9 64.1761 143.92 64.6161 143.08C65.0694 142.227 65.6894 141.573 66.4761 141.12C67.2761 140.653 68.1761 140.42 69.1761 140.42C70.2161 140.42 71.1094 140.66 71.8561 141.14C72.6161 141.62 73.1628 142.233 73.4961 142.98V140.58H74.8961V151.5H73.4961V149.08C73.1494 149.827 72.5961 150.447 71.8361 150.94C71.0894 151.42 70.1961 151.66 69.1561 151.66C68.1694 151.66 67.2761 151.427 66.4761 150.96C65.6894 150.493 65.0694 149.833 64.6161 148.98C64.1761 148.127 63.9561 147.14 63.9561 146.02ZM73.4961 146.04C73.4961 145.16 73.3161 144.387 72.9561 143.72C72.5961 143.053 72.1028 142.54 71.4761 142.18C70.8628 141.82 70.1828 141.64 69.4361 141.64C68.6628 141.64 67.9694 141.813 67.3561 142.16C66.7428 142.507 66.2561 143.013 65.8961 143.68C65.5494 144.333 65.3761 145.113 65.3761 146.02C65.3761 146.913 65.5494 147.7 65.8961 148.38C66.2561 149.047 66.7428 149.56 67.3561 149.92C67.9694 150.267 68.6628 150.44 69.4361 150.44C70.1828 150.44 70.8628 150.26 71.4761 149.9C72.1028 149.54 72.5961 149.027 72.9561 148.36C73.3161 147.693 73.4961 146.92 73.4961 146.04ZM79.4922 142.52C79.7989 141.84 80.2655 141.313 80.8922 140.94C81.5322 140.567 82.3122 140.38 83.2322 140.38V141.84H82.8522C81.8389 141.84 81.0255 142.113 80.4122 142.66C79.7989 143.207 79.4922 144.12 79.4922 145.4V151.5H78.0922V140.58H79.4922V142.52ZM87.1583 141.76V148.54C87.1583 149.207 87.2849 149.667 87.5383 149.92C87.7916 150.173 88.2383 150.3 88.8783 150.3H90.1583V151.5H88.6583C87.6716 151.5 86.9383 151.273 86.4583 150.82C85.9783 150.353 85.7383 149.593 85.7383 148.54V141.76H84.2183V140.58H85.7383V137.84H87.1583V140.58H90.1583V141.76H87.1583ZM93.1672 138.52C92.8872 138.52 92.6472 138.42 92.4472 138.22C92.2472 138.02 92.1472 137.773 92.1472 137.48C92.1472 137.187 92.2472 136.947 92.4472 136.76C92.6472 136.56 92.8872 136.46 93.1672 136.46C93.4472 136.46 93.6872 136.56 93.8872 136.76C94.0872 136.947 94.1872 137.187 94.1872 137.48C94.1872 137.773 94.0872 138.02 93.8872 138.22C93.6872 138.42 93.4472 138.52 93.1672 138.52ZM93.8672 140.58V151.5H92.4672V140.58H93.8672ZM96.3975 146.04C96.3975 144.907 96.6242 143.92 97.0775 143.08C97.5308 142.227 98.1575 141.573 98.9575 141.12C99.7575 140.653 100.671 140.42 101.698 140.42C103.044 140.42 104.151 140.753 105.018 141.42C105.898 142.087 106.464 142.993 106.718 144.14H105.218C105.031 143.353 104.624 142.74 103.998 142.3C103.384 141.847 102.618 141.62 101.698 141.62C100.964 141.62 100.304 141.787 99.7175 142.12C99.1308 142.453 98.6642 142.953 98.3175 143.62C97.9842 144.273 97.8175 145.08 97.8175 146.04C97.8175 147 97.9842 147.813 98.3175 148.48C98.6642 149.147 99.1308 149.647 99.7175 149.98C100.304 150.313 100.964 150.48 101.698 150.48C102.618 150.48 103.384 150.26 103.998 149.82C104.624 149.367 105.031 148.74 105.218 147.94H106.718C106.464 149.06 105.898 149.96 105.018 150.64C104.138 151.32 103.031 151.66 101.698 151.66C100.671 151.66 99.7575 151.433 98.9575 150.98C98.1575 150.513 97.5308 149.86 97.0775 149.02C96.6242 148.167 96.3975 147.173 96.3975 146.04ZM110.003 138.52C109.723 138.52 109.483 138.42 109.283 138.22C109.083 138.02 108.983 137.773 108.983 137.48C108.983 137.187 109.083 136.947 109.283 136.76C109.483 136.56 109.723 136.46 110.003 136.46C110.283 136.46 110.523 136.56 110.723 136.76C110.923 136.947 111.023 137.187 111.023 137.48C111.023 137.773 110.923 138.02 110.723 138.22C110.523 138.42 110.283 138.52 110.003 138.52ZM110.703 140.58V151.5H109.303V140.58H110.703ZM115.253 142.98C115.6 142.247 116.147 141.64 116.893 141.16C117.653 140.667 118.553 140.42 119.593 140.42C120.58 140.42 121.467 140.653 122.253 141.12C123.053 141.573 123.673 142.227 124.113 143.08C124.567 143.92 124.793 144.9 124.793 146.02C124.793 147.14 124.567 148.127 124.113 148.98C123.673 149.833 123.053 150.493 122.253 150.96C121.467 151.427 120.58 151.66 119.593 151.66C118.567 151.66 117.673 151.42 116.913 150.94C116.153 150.447 115.6 149.833 115.253 149.1V156.66H113.873V140.58H115.253V142.98ZM123.373 146.02C123.373 145.113 123.193 144.333 122.833 143.68C122.487 143.013 122.007 142.507 121.393 142.16C120.78 141.813 120.087 141.64 119.313 141.64C118.567 141.64 117.88 141.82 117.253 142.18C116.64 142.54 116.153 143.053 115.793 143.72C115.433 144.387 115.253 145.16 115.253 146.04C115.253 146.92 115.433 147.693 115.793 148.36C116.153 149.027 116.64 149.54 117.253 149.9C117.88 150.26 118.567 150.44 119.313 150.44C120.087 150.44 120.78 150.267 121.393 149.92C122.007 149.56 122.487 149.047 122.833 148.38C123.193 147.7 123.373 146.913 123.373 146.02ZM126.73 146.02C126.73 144.9 126.95 143.92 127.39 143.08C127.843 142.227 128.463 141.573 129.25 141.12C130.05 140.653 130.95 140.42 131.95 140.42C132.99 140.42 133.883 140.66 134.63 141.14C135.39 141.62 135.936 142.233 136.27 142.98V140.58H137.67V151.5H136.27V149.08C135.923 149.827 135.37 150.447 134.61 150.94C133.863 151.42 132.97 151.66 131.93 151.66C130.943 151.66 130.05 151.427 129.25 150.96C128.463 150.493 127.843 149.833 127.39 148.98C126.95 148.127 126.73 147.14 126.73 146.02ZM136.27 146.04C136.27 145.16 136.09 144.387 135.73 143.72C135.37 143.053 134.876 142.54 134.25 142.18C133.636 141.82 132.956 141.64 132.21 141.64C131.436 141.64 130.743 141.813 130.13 142.16C129.516 142.507 129.03 143.013 128.67 143.68C128.323 144.333 128.15 145.113 128.15 146.02C128.15 146.913 128.323 147.7 128.67 148.38C129.03 149.047 129.516 149.56 130.13 149.92C130.743 150.267 131.436 150.44 132.21 150.44C132.956 150.44 133.636 150.26 134.25 149.9C134.876 149.54 135.37 149.027 135.73 148.36C136.09 147.693 136.27 146.92 136.27 146.04ZM145.986 140.38C147.292 140.38 148.359 140.787 149.186 141.6C150.012 142.4 150.426 143.567 150.426 145.1V151.5H149.046V145.26C149.046 144.073 148.746 143.167 148.146 142.54C147.559 141.913 146.752 141.6 145.726 141.6C144.672 141.6 143.832 141.933 143.206 142.6C142.579 143.267 142.266 144.247 142.266 145.54V151.5H140.866V140.58H142.266V142.44C142.612 141.773 143.112 141.267 143.766 140.92C144.419 140.56 145.159 140.38 145.986 140.38ZM155.342 141.76V148.54C155.342 149.207 155.469 149.667 155.722 149.92C155.975 150.173 156.422 150.3 157.062 150.3H158.342V151.5H156.842C155.855 151.5 155.122 151.273 154.642 150.82C154.162 150.353 153.922 149.593 153.922 148.54V141.76H152.402V140.58H153.922V137.84H155.342V140.58H158.342V141.76H155.342ZM164.411 151.66C163.157 151.66 162.131 151.373 161.331 150.8C160.544 150.213 160.104 149.42 160.011 148.42H161.451C161.517 149.033 161.804 149.533 162.311 149.92C162.831 150.293 163.524 150.48 164.391 150.48C165.151 150.48 165.744 150.3 166.171 149.94C166.611 149.58 166.831 149.133 166.831 148.6C166.831 148.227 166.711 147.92 166.471 147.68C166.231 147.44 165.924 147.253 165.551 147.12C165.191 146.973 164.697 146.82 164.071 146.66C163.257 146.447 162.597 146.233 162.091 146.02C161.584 145.807 161.151 145.493 160.791 145.08C160.444 144.653 160.271 144.087 160.271 143.38C160.271 142.847 160.431 142.353 160.751 141.9C161.071 141.447 161.524 141.087 162.111 140.82C162.697 140.553 163.364 140.42 164.111 140.42C165.284 140.42 166.231 140.72 166.951 141.32C167.671 141.907 168.057 142.72 168.111 143.76H166.711C166.671 143.12 166.417 142.607 165.951 142.22C165.497 141.82 164.871 141.62 164.071 141.62C163.364 141.62 162.791 141.787 162.351 142.12C161.911 142.453 161.691 142.867 161.691 143.36C161.691 143.787 161.817 144.14 162.071 144.42C162.337 144.687 162.664 144.9 163.051 145.06C163.437 145.207 163.957 145.373 164.611 145.56C165.397 145.773 166.024 145.98 166.491 146.18C166.957 146.38 167.357 146.673 167.691 147.06C168.024 147.447 168.197 147.96 168.211 148.6C168.211 149.187 168.051 149.713 167.731 150.18C167.411 150.633 166.964 150.993 166.391 151.26C165.817 151.527 165.157 151.66 164.411 151.66Z" fill="white" fill-opacity="0.8"/>
<circle cx="335" cy="292" r="130" fill="white" fill-opacity="0.05"/>
<circle cx="335" cy="292" r="129.5" stroke="white" stroke-opacity="0.05"/>
<rect x="218" y="175" width="232" height="232" rx="116" fill="white" fill-opacity="0.05"/>
<rect x="218.5" y="175.5" width="231" height="231" rx="115.5" stroke="white" stroke-opacity="0.05"/>
<path d="M316.276 236.4H319.88V284H313.828V240.956C311.72 243.268 307.844 245.308 303.968 246.124L303.492 244.764C308.048 243.608 313.556 240.004 316.276 236.4ZM347.061 252.516C356.717 252.516 364.061 259.316 364.061 268.7C364.061 277.88 356.921 284.68 346.721 284.68C338.085 284.68 331.557 279.716 331.557 272.984H333.053C333.053 278.696 338.289 283.048 345.293 283.048C353.249 283.048 357.737 277.336 357.737 268.768C357.737 259.928 352.977 254.148 345.701 254.148C341.757 254.148 337.677 255.712 335.365 258.16L333.937 257.344L336.589 236.4H360.593L360.049 240.548H337.541L335.501 256.256C337.677 254.148 342.369 252.516 347.061 252.516Z" fill="#E7F940"/>
<path d="M299.843 312.52C299.843 311.4 300.063 310.42 300.503 309.58C300.956 308.727 301.576 308.073 302.363 307.62C303.163 307.153 304.063 306.92 305.063 306.92C306.103 306.92 306.996 307.16 307.743 307.64C308.503 308.12 309.049 308.733 309.383 309.48V307.08H310.783V318H309.383V315.58C309.036 316.327 308.483 316.947 307.723 317.44C306.976 317.92 306.083 318.16 305.043 318.16C304.056 318.16 303.163 317.927 302.363 317.46C301.576 316.993 300.956 316.333 300.503 315.48C300.063 314.627 299.843 313.64 299.843 312.52ZM309.383 312.54C309.383 311.66 309.203 310.887 308.843 310.22C308.483 309.553 307.989 309.04 307.363 308.68C306.749 308.32 306.069 308.14 305.323 308.14C304.549 308.14 303.856 308.313 303.243 308.66C302.629 309.007 302.143 309.513 301.783 310.18C301.436 310.833 301.263 311.613 301.263 312.52C301.263 313.413 301.436 314.2 301.783 314.88C302.143 315.547 302.629 316.06 303.243 316.42C303.856 316.767 304.549 316.94 305.323 316.94C306.069 316.94 306.749 316.76 307.363 316.4C307.989 316.04 308.483 315.527 308.843 314.86C309.203 314.193 309.383 313.42 309.383 312.54ZM318.279 308.26H315.739V318H314.339V308.26H312.819V307.08H314.339V306.32C314.339 305.133 314.639 304.26 315.239 303.7C315.852 303.14 316.839 302.86 318.199 302.86V304.06C317.292 304.06 316.652 304.233 316.279 304.58C315.919 304.927 315.739 305.507 315.739 306.32V307.08H318.279V308.26ZM321.883 309.02C322.189 308.34 322.656 307.813 323.283 307.44C323.923 307.067 324.703 306.88 325.623 306.88V308.34H325.243C324.229 308.34 323.416 308.613 322.803 309.16C322.189 309.707 321.883 310.62 321.883 311.9V318H320.483V307.08H321.883V309.02ZM328.429 305.02C328.149 305.02 327.909 304.92 327.709 304.72C327.509 304.52 327.409 304.273 327.409 303.98C327.409 303.687 327.509 303.447 327.709 303.26C327.909 303.06 328.149 302.96 328.429 302.96C328.709 302.96 328.949 303.06 329.149 303.26C329.349 303.447 329.449 303.687 329.449 303.98C329.449 304.273 329.349 304.52 329.149 304.72C328.949 304.92 328.709 305.02 328.429 305.02ZM329.129 307.08V318H327.729V307.08H329.129ZM331.659 312.54C331.659 311.407 331.886 310.42 332.339 309.58C332.793 308.727 333.419 308.073 334.219 307.62C335.019 307.153 335.933 306.92 336.959 306.92C338.306 306.92 339.413 307.253 340.279 307.92C341.159 308.587 341.726 309.493 341.979 310.64H340.479C340.293 309.853 339.886 309.24 339.259 308.8C338.646 308.347 337.879 308.12 336.959 308.12C336.226 308.12 335.566 308.287 334.979 308.62C334.393 308.953 333.926 309.453 333.579 310.12C333.246 310.773 333.079 311.58 333.079 312.54C333.079 313.5 333.246 314.313 333.579 314.98C333.926 315.647 334.393 316.147 334.979 316.48C335.566 316.813 336.226 316.98 336.959 316.98C337.879 316.98 338.646 316.76 339.259 316.32C339.886 315.867 340.293 315.24 340.479 314.44H341.979C341.726 315.56 341.159 316.46 340.279 317.14C339.399 317.82 338.293 318.16 336.959 318.16C335.933 318.16 335.019 317.933 334.219 317.48C333.419 317.013 332.793 316.36 332.339 315.52C331.886 314.667 331.659 313.673 331.659 312.54ZM343.925 312.52C343.925 311.4 344.145 310.42 344.585 309.58C345.038 308.727 345.658 308.073 346.445 307.62C347.245 307.153 348.145 306.92 349.145 306.92C350.185 306.92 351.078 307.16 351.825 307.64C352.585 308.12 353.132 308.733 353.465 309.48V307.08H354.865V318H353.465V315.58C353.118 316.327 352.565 316.947 351.805 317.44C351.058 317.92 350.165 318.16 349.125 318.16C348.138 318.16 347.245 317.927 346.445 317.46C345.658 316.993 345.038 316.333 344.585 315.48C344.145 314.627 343.925 313.64 343.925 312.52ZM353.465 312.54C353.465 311.66 353.285 310.887 352.925 310.22C352.565 309.553 352.072 309.04 351.445 308.68C350.832 308.32 350.152 308.14 349.405 308.14C348.632 308.14 347.938 308.313 347.325 308.66C346.712 309.007 346.225 309.513 345.865 310.18C345.518 310.833 345.345 311.613 345.345 312.52C345.345 313.413 345.518 314.2 345.865 314.88C346.225 315.547 346.712 316.06 347.325 316.42C347.938 316.767 348.632 316.94 349.405 316.94C350.152 316.94 350.832 316.76 351.445 316.4C352.072 316.04 352.565 315.527 352.925 314.86C353.285 314.193 353.465 313.42 353.465 312.54ZM363.181 306.88C364.488 306.88 365.554 307.287 366.381 308.1C367.208 308.9 367.621 310.067 367.621 311.6V318H366.241V311.76C366.241 310.573 365.941 309.667 365.341 309.04C364.754 308.413 363.948 308.1 362.921 308.1C361.868 308.1 361.028 308.433 360.401 309.1C359.774 309.767 359.461 310.747 359.461 312.04V318H358.061V307.08H359.461V308.94C359.808 308.273 360.308 307.767 360.961 307.42C361.614 307.06 362.354 306.88 363.181 306.88ZM288.964 342.54C288.964 341.407 289.191 340.42 289.644 339.58C290.097 338.727 290.724 338.073 291.524 337.62C292.324 337.153 293.237 336.92 294.264 336.92C295.611 336.92 296.717 337.253 297.584 337.92C298.464 338.587 299.031 339.493 299.284 340.64H297.784C297.597 339.853 297.191 339.24 296.564 338.8C295.951 338.347 295.184 338.12 294.264 338.12C293.531 338.12 292.871 338.287 292.284 338.62C291.697 338.953 291.231 339.453 290.884 340.12C290.551 340.773 290.384 341.58 290.384 342.54C290.384 343.5 290.551 344.313 290.884 344.98C291.231 345.647 291.697 346.147 292.284 346.48C292.871 346.813 293.531 346.98 294.264 346.98C295.184 346.98 295.951 346.76 296.564 346.32C297.191 345.867 297.597 345.24 297.784 344.44H299.284C299.031 345.56 298.464 346.46 297.584 347.14C296.704 347.82 295.597 348.16 294.264 348.16C293.237 348.16 292.324 347.933 291.524 347.48C290.724 347.013 290.097 346.36 289.644 345.52C289.191 344.667 288.964 343.673 288.964 342.54ZM306.65 348.16C305.623 348.16 304.696 347.933 303.87 347.48C303.056 347.013 302.41 346.36 301.93 345.52C301.463 344.667 301.23 343.673 301.23 342.54C301.23 341.407 301.47 340.42 301.95 339.58C302.43 338.727 303.083 338.073 303.91 337.62C304.736 337.153 305.663 336.92 306.69 336.92C307.716 336.92 308.643 337.153 309.47 337.62C310.31 338.073 310.963 338.727 311.43 339.58C311.91 340.42 312.15 341.407 312.15 342.54C312.15 343.66 311.91 344.647 311.43 345.5C310.95 346.353 310.29 347.013 309.45 347.48C308.61 347.933 307.676 348.16 306.65 348.16ZM306.65 346.94C307.37 346.94 308.036 346.78 308.65 346.46C309.263 346.127 309.756 345.633 310.13 344.98C310.516 344.313 310.71 343.5 310.71 342.54C310.71 341.58 310.523 340.773 310.15 340.12C309.776 339.453 309.283 338.96 308.67 338.64C308.056 338.307 307.39 338.14 306.67 338.14C305.95 338.14 305.283 338.307 304.67 338.64C304.056 338.96 303.563 339.453 303.19 340.12C302.83 340.773 302.65 341.58 302.65 342.54C302.65 343.5 302.83 344.313 303.19 344.98C303.563 345.633 304.05 346.127 304.65 346.46C305.263 346.78 305.93 346.94 306.65 346.94ZM324.162 337.08V348H322.762V346.08C322.442 346.76 321.948 347.28 321.282 347.64C320.615 348 319.868 348.18 319.042 348.18C317.735 348.18 316.668 347.78 315.842 346.98C315.015 346.167 314.602 344.993 314.602 343.46V337.08H315.982V343.3C315.982 344.487 316.275 345.393 316.862 346.02C317.462 346.647 318.275 346.96 319.302 346.96C320.355 346.96 321.195 346.627 321.822 345.96C322.448 345.293 322.762 344.313 322.762 343.02V337.08H324.162ZM332.478 336.88C333.784 336.88 334.851 337.287 335.678 338.1C336.504 338.9 336.918 340.067 336.918 341.6V348H335.538V341.76C335.538 340.573 335.238 339.667 334.638 339.04C334.051 338.413 333.244 338.1 332.218 338.1C331.164 338.1 330.324 338.433 329.698 339.1C329.071 339.767 328.758 340.747 328.758 342.04V348H327.358V337.08H328.758V338.94C329.104 338.273 329.604 337.767 330.258 337.42C330.911 337.06 331.651 336.88 332.478 336.88ZM341.834 338.26V345.04C341.834 345.707 341.961 346.167 342.214 346.42C342.467 346.673 342.914 346.8 343.554 346.8H344.834V348H343.334C342.347 348 341.614 347.773 341.134 347.32C340.654 346.853 340.414 346.093 340.414 345.04V338.26H338.894V337.08H340.414V334.34H341.834V337.08H344.834V338.26H341.834ZM348.543 339.02C348.85 338.34 349.316 337.813 349.943 337.44C350.583 337.067 351.363 336.88 352.283 336.88V338.34H351.903C350.89 338.34 350.076 338.613 349.463 339.16C348.85 339.707 348.543 340.62 348.543 341.9V348H347.143V337.08H348.543V339.02ZM355.089 335.02C354.809 335.02 354.569 334.92 354.369 334.72C354.169 334.52 354.069 334.273 354.069 333.98C354.069 333.687 354.169 333.447 354.369 333.26C354.569 333.06 354.809 332.96 355.089 332.96C355.369 332.96 355.609 333.06 355.809 333.26C356.009 333.447 356.109 333.687 356.109 333.98C356.109 334.273 356.009 334.52 355.809 334.72C355.609 334.92 355.369 335.02 355.089 335.02ZM355.789 337.08V348H354.389V337.08H355.789ZM368.839 341.98C368.839 342.46 368.826 342.827 368.799 343.08H359.739C359.779 343.907 359.979 344.613 360.339 345.2C360.699 345.787 361.173 346.233 361.759 346.54C362.346 346.833 362.986 346.98 363.679 346.98C364.586 346.98 365.346 346.76 365.959 346.32C366.586 345.88 366.999 345.287 367.199 344.54H368.679C368.413 345.607 367.839 346.48 366.959 347.16C366.093 347.827 364.999 348.16 363.679 348.16C362.653 348.16 361.733 347.933 360.919 347.48C360.106 347.013 359.466 346.36 358.999 345.52C358.546 344.667 358.319 343.673 358.319 342.54C358.319 341.407 358.546 340.413 358.999 339.56C359.453 338.707 360.086 338.053 360.899 337.6C361.713 337.147 362.639 336.92 363.679 336.92C364.719 336.92 365.626 337.147 366.399 337.6C367.186 338.053 367.786 338.667 368.199 339.44C368.626 340.2 368.839 341.047 368.839 341.98ZM367.419 341.94C367.433 341.127 367.266 340.433 366.919 339.86C366.586 339.287 366.126 338.853 365.539 338.56C364.953 338.267 364.313 338.12 363.619 338.12C362.579 338.12 361.693 338.453 360.959 339.12C360.226 339.787 359.819 340.727 359.739 341.94H367.419ZM375.161 348.16C373.907 348.16 372.881 347.873 372.081 347.3C371.294 346.713 370.854 345.92 370.761 344.92H372.201C372.267 345.533 372.554 346.033 373.061 346.42C373.581 346.793 374.274 346.98 375.141 346.98C375.901 346.98 376.494 346.8 376.921 346.44C377.361 346.08 377.581 345.633 377.581 345.1C377.581 344.727 377.461 344.42 377.221 344.18C376.981 343.94 376.674 343.753 376.301 343.62C375.941 343.473 375.447 343.32 374.821 343.16C374.007 342.947 373.347 342.733 372.841 342.52C372.334 342.307 371.901 341.993 371.541 341.58C371.194 341.153 371.021 340.587 371.021 339.88C371.021 339.347 371.181 338.853 371.501 338.4C371.821 337.947 372.274 337.587 372.861 337.32C373.447 337.053 374.114 336.92 374.861 336.92C376.034 336.92 376.981 337.22 377.701 337.82C378.421 338.407 378.807 339.22 378.861 340.26H377.461C377.421 339.62 377.167 339.107 376.701 338.72C376.247 338.32 375.621 338.12 374.821 338.12C374.114 338.12 373.541 338.287 373.101 338.62C372.661 338.953 372.441 339.367 372.441 339.86C372.441 340.287 372.567 340.64 372.821 340.92C373.087 341.187 373.414 341.4 373.801 341.56C374.187 341.707 374.707 341.873 375.361 342.06C376.147 342.273 376.774 342.48 377.241 342.68C377.707 342.88 378.107 343.173 378.441 343.56C378.774 343.947 378.947 344.46 378.961 345.1C378.961 345.687 378.801 346.213 378.481 346.68C378.161 347.133 377.714 347.493 377.141 347.76C376.567 348.027 375.907 348.16 375.161 348.16Z" fill="white" fill-opacity="0.8"/>
<circle cx="145" cy="361" r="31.7826" fill="white" fill-opacity="0.05"/>
<circle cx="145" cy="361" r="31.2826" stroke="white" stroke-opacity="0.05"/>
<circle cx="145" cy="361" r="43" fill="white" fill-opacity="0.05"/>
<circle cx="145" cy="361" r="42.5" stroke="white" stroke-opacity="0.05"/>
<circle cx="270" cy="96" r="19.2174" fill="white" fill-opacity="0.05"/>
<circle cx="270" cy="96" r="18.7174" stroke="white" stroke-opacity="0.05"/>
<circle cx="270" cy="96" r="26" fill="white" fill-opacity="0.05"/>
<circle cx="270" cy="96" r="25.5" stroke="white" stroke-opacity="0.05"/>
</svg>
