<svg width="17" height="17" viewBox="0 0 17 17" fill="none" xmlns="http://www.w3.org/2000/svg">
<path d="M16.4206 8.4608C15.0663 8.47432 13.7931 8.82033 12.6794 9.42583C10.917 10.3773 9.55186 11.9668 8.895 13.886C8.62468 14.6646 8.4733 15.4998 8.45979 16.3675C8.45708 16.4108 8.45709 16.454 8.45709 16.5V16.3675C8.44357 15.5269 8.3003 14.7186 8.0435 13.959C7.29473 11.7019 5.57011 9.89078 3.37244 9.02306C2.49932 8.67706 1.54781 8.47973 0.553045 8.46351C0.507092 8.46081 0.463844 8.4608 0.420593 8.4608H0.553045C1.57754 8.44459 2.55338 8.23644 3.45083 7.86881C5.37548 7.0876 6.92439 5.57924 7.76508 3.68702C8.20029 2.71118 8.44627 1.63533 8.45709 0.5C8.4679 1.68939 8.73821 2.81931 9.21397 3.833C9.91949 5.34136 11.0846 6.59563 12.528 7.41198C13.6796 8.06885 15.0068 8.44729 16.4206 8.4608Z" fill="#24331A"/>
</svg>
