<svg width="57" height="45" viewBox="0 0 57 45" fill="none" xmlns="http://www.w3.org/2000/svg">
<path d="M55.184 6.68307H6.64684C6.52385 6.68307 6.40589 6.73192 6.31893 6.81889C6.23196 6.90586 6.18311 7.02381 6.18311 7.1468V40.9991C6.18311 41.1221 6.23196 41.2401 6.31893 41.327C6.40589 41.414 6.52385 41.4629 6.64684 41.4629H48.9622C49.0375 41.4629 49.1116 41.4446 49.1782 41.4095C49.2448 41.3745 49.3019 41.3238 49.3445 41.2618L55.5661 32.211C55.6192 32.1337 55.6477 32.042 55.6477 31.9482V7.1468C55.6477 7.02381 55.5988 6.90586 55.5119 6.81889C55.4249 6.73192 55.307 6.68307 55.184 6.68307Z" fill="#417319"/>
<g style="mix-blend-mode:multiply" opacity="0.8">
<path d="M55.184 6.68307H6.64684C6.52385 6.68307 6.40589 6.73192 6.31893 6.81889C6.23196 6.90586 6.18311 7.02381 6.18311 7.1468V40.9991C6.18311 41.1221 6.23196 41.2401 6.31893 41.327C6.40589 41.414 6.52385 41.4629 6.64684 41.4629H48.6174C48.7548 41.4629 48.8853 41.4018 48.9734 41.2964L55.54 33.4303C55.6095 33.3468 55.6477 33.2417 55.6477 33.133V7.1468C55.6477 7.02381 55.5988 6.90586 55.5119 6.81889C55.4249 6.73192 55.307 6.68307 55.184 6.68307Z" fill="#417319"/>
</g>
<path d="M0 0.963731C0 0.840742 0.0488574 0.72279 0.135824 0.635823C0.22279 0.548857 0.340742 0.5 0.463731 0.5H49.7738C49.8967 0.5 50.0147 0.548857 50.1017 0.635823C50.1886 0.72279 50.2375 0.840742 50.2375 0.963731V35.5889C50.2375 35.7119 50.1886 35.8299 50.1017 35.9169C50.0147 36.0038 49.8967 36.0527 49.7738 36.0527H0.463731C0.340742 36.0527 0.22279 36.0038 0.135824 35.9169C0.0488574 35.8299 0 35.7119 0 35.5889V0.963731Z" fill="#417319"/>
<g style="mix-blend-mode:multiply" opacity="0.5">
<path d="M2.31865 0.5H0.463731C0.340742 0.5 0.22279 0.548857 0.135824 0.635823C0.0488574 0.72279 0 0.840742 0 0.963731V35.5889C0 35.7119 0.0488574 35.8299 0.135824 35.9169C0.22279 36.0038 0.340742 36.0527 0.463731 36.0527H2.31865V0.5Z" fill="#417319"/>
</g>
<path d="M10.5112 5.91019C10.2551 5.91019 10.0499 6.1184 10.0246 6.3733C9.8074 8.56458 8.06455 10.3074 5.87327 10.5246C5.61837 10.55 5.41016 10.7551 5.41016 11.0112V25.5414C5.41016 25.7976 5.61837 26.0027 5.87327 26.0281C8.06455 26.2452 9.80725 27.9881 10.0246 30.1794C10.0499 30.4343 10.2551 30.6425 10.5112 30.6425H39.7262C39.9824 30.6425 40.1875 30.4343 40.2128 30.1794C40.43 27.9881 42.1729 26.2452 44.3641 26.0281C44.619 26.0027 44.8273 25.7976 44.8273 25.5414V11.0112C44.8273 10.7551 44.619 10.55 44.3641 10.5246C42.1729 10.3074 40.43 8.56458 40.2128 6.3733C40.1875 6.1184 39.9824 5.91019 39.7262 5.91019H10.5112Z" fill="#EBE6EF"/>
<g style="mix-blend-mode:multiply" opacity="0.5">
<path d="M10.0246 6.3733C9.8074 8.56458 8.06455 10.3074 5.87327 10.5246C5.61837 10.55 5.41016 10.7551 5.41016 11.0112V25.5414C5.41016 25.7976 5.61837 26.0027 5.87327 26.0281C8.06455 26.2452 9.80725 27.9881 10.0246 30.1794C10.0499 30.4343 10.2551 30.6425 10.5112 30.6425H25.1187V5.91019H10.5112C10.2551 5.91019 10.0499 6.1184 10.0246 6.3733Z" fill="#EBE6EF"/>
</g>
<path d="M25.1187 23.6865C28.1067 23.6865 30.5289 21.2643 30.5289 18.2763C30.5289 15.2884 28.1067 12.8661 25.1187 12.8661C22.1308 12.8661 19.7086 15.2884 19.7086 18.2763C19.7086 21.2643 22.1308 23.6865 25.1187 23.6865Z" fill="#A036F3"/>
<g style="mix-blend-mode:multiply" opacity="0.5">
<path d="M29.1761 21.8554C28.616 22.0449 28.0287 22.1413 27.4374 22.1408C24.4494 22.1408 22.0272 19.7185 22.0272 16.7306C22.0253 15.4123 22.5066 14.1391 23.3801 13.1517C21.2451 13.8757 19.7086 15.8966 19.7086 18.2763C19.7086 21.2643 22.1308 23.6865 25.1187 23.6865C26.7344 23.6865 28.1848 22.9783 29.1761 21.8554Z" fill="#A036F3"/>
</g>
<path d="M14.2984 19.8221C15.1521 19.8221 15.8442 19.13 15.8442 18.2763C15.8442 17.4226 15.1521 16.7306 14.2984 16.7306C13.4447 16.7306 12.7526 17.4226 12.7526 18.2763C12.7526 19.13 13.4447 19.8221 14.2984 19.8221Z" fill="#A036F3"/>
<g style="mix-blend-mode:multiply" opacity="0.5">
<path d="M15.7075 18.9126C15.5075 19.0028 15.2907 19.0493 15.0713 19.0492C14.2175 19.0492 13.5255 18.3572 13.5255 17.5035C13.5255 17.2767 13.5744 17.0612 13.6622 16.8672C13.391 16.9897 13.161 17.1878 12.9997 17.4377C12.8383 17.6877 12.7526 17.9788 12.7526 18.2763C12.7526 19.1301 13.4447 19.8221 14.2984 19.8221C14.5959 19.8222 14.8871 19.7364 15.137 19.5751C15.387 19.4137 15.5851 19.1837 15.7075 18.9126Z" fill="#A036F3"/>
</g>
<path d="M35.9391 19.8221C36.7928 19.8221 37.4849 19.13 37.4849 18.2763C37.4849 17.4226 36.7928 16.7306 35.9391 16.7306C35.0854 16.7306 34.3934 17.4226 34.3934 18.2763C34.3934 19.13 35.0854 19.8221 35.9391 19.8221Z" fill="#A036F3"/>
<g style="mix-blend-mode:multiply" opacity="0.5">
<path d="M37.3483 18.9126C37.1483 19.0028 36.9314 19.0493 36.712 19.0492C35.8583 19.0492 35.1663 18.3572 35.1663 17.5035C35.1663 17.2767 35.2151 17.0612 35.3029 16.8672C35.0318 16.9897 34.8017 17.1878 34.6404 17.4377C34.4791 17.6877 34.3933 17.9788 34.3934 18.2763C34.3934 19.1301 35.0854 19.8221 35.9391 19.8221C36.2366 19.8222 36.5278 19.7364 36.7778 19.5751C37.0277 19.4137 37.2258 19.1837 37.3483 18.9126Z" fill="#A036F3"/>
</g>
<path d="M46.1658 44.4521C46.2304 44.4836 46.3013 44.4999 46.3731 44.4999C46.4449 44.4999 46.5158 44.4836 46.5804 44.4521C57.2006 39.1566 56.4395 31.2608 56.3917 26.2782C56.3903 26.1668 56.3499 26.0595 56.2777 25.9747C56.2054 25.89 56.1057 25.8332 55.996 25.8143C52.9691 25.2733 47.525 23.3305 46.5311 22.9712C46.4291 22.9338 46.3171 22.9338 46.2151 22.9712C45.2212 23.3305 39.7773 25.2733 36.7504 25.8137C36.6406 25.8326 36.5409 25.8894 36.4686 25.9741C36.3963 26.0589 36.3559 26.1663 36.3545 26.2777C36.3068 31.2608 35.5456 39.1566 46.1658 44.4521Z" fill="#A036F3"/>
<g style="mix-blend-mode:multiply" opacity="0.5">
<path d="M36.3534 26.3814C36.3511 26.5745 36.3482 26.7676 36.3449 26.9606L36.342 27.1307C36.3208 28.3881 36.297 29.7931 36.4332 31.2715C36.5627 32.6752 36.8365 34.1449 37.3937 35.6174C38.5813 38.7548 41.0564 41.9045 46.1658 44.4521L46.1698 44.4541C46.2329 44.4847 46.3029 44.5 46.3731 44.5V22.943C46.3199 22.943 46.2667 22.9524 46.2151 22.9711C45.2212 23.3305 39.7773 25.2733 36.7504 25.8137C36.6406 25.8326 36.5409 25.8894 36.4686 25.9741C36.3963 26.0589 36.3559 26.1663 36.3545 26.2777L36.3534 26.3814Z" fill="#A036F3"/>
</g>
<path fill-rule="evenodd" clip-rule="evenodd" d="M51.3873 30.2543C51.6016 30.4624 51.6067 30.805 51.3986 31.0193L45.3959 37.2024C45.2939 37.3074 45.1538 37.3667 45.0074 37.3666C44.8611 37.3665 44.721 37.3071 44.6191 37.202L42.1201 34.6224C41.9122 34.4078 41.9176 34.0653 42.1322 33.8574C42.3468 33.6495 42.6893 33.6549 42.8972 33.8695L45.0081 36.0484L50.6222 30.2656C50.8304 30.0513 51.1729 30.0462 51.3873 30.2543Z" fill="#EBE6EF"/>
</svg>
