<svg width="50" height="53" viewBox="0 0 50 53" fill="none" xmlns="http://www.w3.org/2000/svg">
<path d="M0 3.50402C0 1.8449 1.3449 0.5 3.00402 0.5H45.0603C46.7194 0.5 48.0643 1.8449 48.0643 3.50402V15.5201C48.0643 17.1792 46.7194 18.5241 45.0603 18.5241H3.00402C1.3449 18.5241 0 17.1792 0 15.5201V3.50402Z" fill="#A036F3"/>
<g style="mix-blend-mode:multiply" opacity="0.5">
<path d="M3.00402 0.5C1.3449 0.5 0 1.8449 0 3.50402V15.5201C0 17.1792 1.3449 18.5241 3.00402 18.5241H9.01207C7.35294 18.5241 6.00804 17.1792 6.00804 15.5201V3.50402C6.00804 1.8449 7.35294 0.5 9.01207 0.5H3.00402Z" fill="#A036F3"/>
</g>
<path d="M37.7393 26.3298C38.9262 23.1291 38.2337 19.3897 35.6618 16.8178C32.1425 13.2985 26.4363 13.2985 22.917 16.8178C19.3976 20.3372 19.3975 26.0433 22.917 29.5629C25.4887 32.1346 29.2283 32.8272 32.4289 31.6403L44.5577 43.769C44.6422 43.8535 44.7568 43.9009 44.8762 43.9009H49.5494C49.6689 43.9009 49.7836 43.8534 49.8681 43.7689C49.9526 43.6844 50 43.5698 50 43.4503V38.7772C50 38.7181 49.9884 38.6594 49.9657 38.6047C49.9431 38.5501 49.9099 38.5004 49.868 38.4585L37.7393 26.3298Z" fill="#24440B"/>
<g style="mix-blend-mode:multiply" opacity="0.5">
<path d="M49.8682 43.7684L34.022 27.9224C30.8213 29.1092 27.0819 28.4167 24.51 25.8449C22.3411 23.676 21.5088 20.6768 22.0132 17.8704C20.8583 19.4461 20.2798 21.3119 20.2774 23.1784C20.2745 25.4885 21.1544 27.7996 22.917 29.5623C25.4887 32.134 29.2283 32.8264 32.4289 31.6395L44.5577 43.7683C44.6421 43.8528 44.7567 43.9003 44.8762 43.9003H49.5654C49.6793 43.8962 49.7876 43.8491 49.8682 43.7684Z" fill="#24440B"/>
</g>
<g style="mix-blend-mode:multiply" opacity="0.5">
<path d="M44.2115 40.2366C44.2604 40.1878 44.2991 40.1298 44.3255 40.066C44.3519 40.0022 44.3655 39.9339 44.3655 39.8648C44.3655 39.7958 44.3519 39.7274 44.3255 39.6637C44.2991 39.5999 44.2604 39.5419 44.2115 39.4931C44.1627 39.4443 44.1048 39.4056 44.041 39.3791C43.9772 39.3527 43.9088 39.3391 43.8398 39.3391C43.7708 39.3391 43.7024 39.3527 43.6386 39.3791C43.5748 39.4056 43.5169 39.4443 43.4681 39.4931L44.2115 40.2366ZM42.6184 41.8296L44.2115 40.2366L43.4681 39.4931L41.875 41.0863L42.6184 41.8296ZM41.5563 37.5816C41.6533 37.4827 41.7073 37.3495 41.7066 37.211C41.7059 37.0725 41.6506 36.9399 41.5527 36.8419C41.4547 36.744 41.3221 36.6886 41.1836 36.6879C41.0451 36.6872 40.9119 36.7412 40.8129 36.8381L41.5563 37.5816ZM39.9633 39.1748L41.5563 37.5816L40.8129 36.8381L39.2198 38.4313L39.9633 39.1748ZM38.9012 34.9261C38.9981 34.8272 39.0521 34.694 39.0514 34.5554C39.0507 34.4169 38.9954 34.2843 38.8974 34.1864C38.7995 34.0884 38.6668 34.0331 38.5283 34.0324C38.3898 34.0318 38.2566 34.0858 38.1577 34.1827L38.9012 34.9261ZM37.308 36.5193L38.9012 34.9261L38.1577 34.1827L36.5645 35.7758L37.308 36.5193Z" fill="#24440B"/>
</g>
<path d="M27.59 20.3217C27.7544 20.4917 27.8454 20.7194 27.8434 20.9558C27.8414 21.1923 27.7467 21.4185 27.5795 21.5857C27.4123 21.7528 27.1861 21.8477 26.9497 21.8497C26.7133 21.8517 26.4855 21.7607 26.3156 21.5963C26.1512 21.4264 26.0602 21.1986 26.0622 20.9622C26.0641 20.7258 26.1589 20.4996 26.3261 20.3324C26.4933 20.1652 26.7194 20.0704 26.9559 20.0684C27.1923 20.0664 27.42 20.1574 27.59 20.3217Z" fill="white"/>
<path d="M26.2852 31.3747C29.3876 29.9508 31.5423 26.8169 31.5423 23.1798C31.5423 18.2025 27.5074 14.1677 22.5302 14.1677C17.553 14.1677 13.5181 18.2025 13.5181 23.1798C13.5181 26.8169 15.6728 29.9508 18.7752 31.3747V48.5272C18.7752 48.5864 18.7868 48.6451 18.8095 48.6997C18.8321 48.7544 18.8653 48.8041 18.9072 48.846L22.2116 52.1504C22.2961 52.2349 22.4107 52.2823 22.5302 52.2823C22.6497 52.2823 22.7643 52.2349 22.8488 52.1504L26.1532 48.846C26.1951 48.8041 26.2283 48.7544 26.2509 48.6997C26.2736 48.6451 26.2852 48.5864 26.2852 48.5272V31.3747Z" fill="#417319"/>
<g style="mix-blend-mode:multiply" opacity="0.5">
<path d="M22.5302 52.2823V29.8727C19.4278 28.4488 17.2732 25.3149 17.2732 21.6779C17.2732 18.6105 18.8057 15.901 21.1467 14.2733C16.8263 14.939 13.5181 18.6731 13.5181 23.1798C13.5181 26.8169 15.6728 29.9508 18.7752 31.3747V48.5272" fill="#417319"/>
<path d="M22.5302 52.2823C22.4108 52.2823 22.2962 52.2349 22.2117 52.1504L18.9072 48.846C18.8654 48.8041 18.8322 48.7544 18.8095 48.6998C18.7869 48.6451 18.7752 48.5865 18.7752 48.5273" fill="#417319"/>
</g>
<g style="mix-blend-mode:multiply" opacity="0.5">
<path d="M21.0282 45.785C21.1676 45.785 21.3013 45.7296 21.3999 45.6311C21.4985 45.5325 21.5539 45.3988 21.5539 45.2593C21.5539 45.1199 21.4985 44.9862 21.3999 44.8876C21.3013 44.789 21.1676 44.7336 21.0282 44.7336V45.785ZM18.7751 45.785H21.0282V44.7336H18.7751V45.785ZM21.0282 42.03C21.1676 42.03 21.3013 41.9746 21.3999 41.876C21.4985 41.7774 21.5539 41.6437 21.5539 41.5043C21.5539 41.3649 21.4985 41.2312 21.3999 41.1326C21.3013 41.034 21.1676 40.9786 21.0282 40.9786V42.03ZM18.7751 42.03H21.0282V40.9786H18.7751V42.03ZM21.0282 38.275C21.1676 38.275 21.3013 38.2196 21.3999 38.121C21.4985 38.0224 21.5539 37.8887 21.5539 37.7493C21.5539 37.6099 21.4985 37.4761 21.3999 37.3775C21.3013 37.279 21.1676 37.2236 21.0282 37.2236V38.275ZM18.7751 38.275H21.0282V37.2236H18.7751V38.275Z" fill="#417319"/>
</g>
<path d="M22.4551 20.8516C22.9528 20.8516 23.3563 20.4482 23.3563 19.9504C23.3563 19.4527 22.9528 19.0492 22.4551 19.0492C21.9574 19.0492 21.5539 19.4527 21.5539 19.9504C21.5539 20.4482 21.9574 20.8516 22.4551 20.8516Z" fill="white"/>
<path fill-rule="evenodd" clip-rule="evenodd" d="M23.2812 7.03314C19.8386 7.03314 17.0479 9.82388 17.0479 13.2665C17.0479 16.4513 19.4368 19.0789 22.5202 19.454C22.8084 19.489 23.0137 19.7511 22.9786 20.0393C22.9436 20.3275 22.6815 20.5327 22.3933 20.4977C18.7886 20.0592 15.9965 16.9894 15.9965 13.2665C15.9965 9.2432 19.2579 5.98174 23.2812 5.98174C27.3045 5.98174 30.566 9.2432 30.566 13.2665C30.566 13.6085 30.5424 13.9452 30.4967 14.275C30.4569 14.5626 30.1915 14.7635 29.9039 14.7237C29.6163 14.6839 29.4154 14.4185 29.4552 14.1309C29.4943 13.8486 29.5146 13.5601 29.5146 13.2665C29.5146 9.82388 26.7238 7.03314 23.2812 7.03314Z" fill="white"/>
<path d="M35.6618 16.8173C33.5007 14.656 30.5149 13.8219 27.7172 14.3151L30.3861 16.8173H35.6618Z" fill="#24440B"/>
</svg>
