<svg width="50" height="51" viewBox="0 0 50 51" fill="none" xmlns="http://www.w3.org/2000/svg">
<path d="M4.35779 35.133C4.35779 34.8797 4.56316 34.6743 4.8165 34.6743H14.6024C14.8558 34.6743 15.0612 34.8797 15.0612 35.133V49.5061C15.0612 49.7595 14.8558 49.9648 14.6024 49.9648H4.8165C4.56316 49.9648 4.35779 49.7595 4.35779 49.5061V35.133Z" fill="#6FC72A"/>
<g style="mix-blend-mode:multiply" opacity="0.5">
<path d="M4.35779 35.133C4.35779 34.8797 4.56316 34.6743 4.8165 34.6743H9.70947V49.9648H4.8165C4.56316 49.9648 4.35779 49.7595 4.35779 49.5061V35.133Z" fill="#6FC72A"/>
</g>
<path d="M19.6483 21.3716C19.6483 21.1182 19.8537 20.9128 20.107 20.9128H29.893C30.1463 20.9128 30.3517 21.1182 30.3517 21.3716V49.5061C30.3517 49.7595 30.1463 49.9648 29.893 49.9648H20.107C19.8537 49.9648 19.6483 49.7595 19.6483 49.5061V21.3716Z" fill="#417319"/>
<path d="M34.9388 7.6101C34.9388 7.35675 35.1442 7.15138 35.3976 7.15138H45.1835C45.4369 7.15138 45.6422 7.35675 45.6422 7.6101V49.5061C45.6422 49.7595 45.4369 49.9648 45.1835 49.9648H35.3976C35.1442 49.9648 34.9388 49.7595 34.9388 49.5061V7.6101Z" fill="#24440B"/>
<g style="mix-blend-mode:multiply" opacity="0.5">
<path d="M19.6483 21.3716C19.6483 21.1182 19.8537 20.9128 20.107 20.9128H25V49.9648H20.107C19.8537 49.9648 19.6483 49.7595 19.6483 49.5061V21.3716Z" fill="#417319"/>
</g>
<g style="mix-blend-mode:multiply" opacity="0.5">
<path d="M34.9388 7.6101C34.9388 7.35675 35.1442 7.15138 35.3976 7.15138H40.2905V49.9648H35.3976C35.1442 49.9648 34.9388 49.7595 34.9388 49.5061V7.6101Z" fill="#24440B"/>
</g>
<path fill-rule="evenodd" clip-rule="evenodd" d="M0 49.9648C0 49.6693 0.239603 49.4297 0.535168 49.4297H49.4648C49.7604 49.4297 50 49.6693 50 49.9648C50 50.2604 49.7604 50.5 49.4648 50.5H0.535168C0.239603 50.5 0 50.2604 0 49.9648Z" fill="#EBE6EF"/>
<path fill-rule="evenodd" clip-rule="evenodd" d="M30.7414 0.668384C30.944 0.883615 30.9337 1.22231 30.7185 1.42488L4.72459 25.8897C4.50936 26.0923 4.17066 26.082 3.96809 25.8668C3.76552 25.6516 3.77579 25.3129 3.99102 25.1103L29.9849 0.64546C30.2001 0.44289 30.5388 0.453154 30.7414 0.668384Z" fill="#A036F3"/>
<path fill-rule="evenodd" clip-rule="evenodd" d="M20.6422 1.03517C20.6422 0.739603 20.8818 0.5 21.1774 0.5H30.3517C30.6473 0.5 30.8869 0.739603 30.8869 1.03517V10.2095C30.8869 10.505 30.6473 10.7446 30.3517 10.7446C30.0561 10.7446 29.8165 10.505 29.8165 10.2095V1.57034H21.1774C20.8818 1.57034 20.6422 1.33073 20.6422 1.03517Z" fill="#A036F3"/>
</svg>
