<?xml version="1.0" encoding="UTF-8"?>
<svg id="Layer_2" xmlns="http://www.w3.org/2000/svg" viewBox="0 0 495.96 140">
  <defs>
    <style>
      .cls-1 {
        fill: #fff;
      }

      .cls-2 {
        fill: #417319;
      }
    </style>
  </defs>
  <g id="Layer_1-2" data-name="Layer_1">
    <g>
      <path class="cls-1" d="M115.79,109.35v-36.54c0-4.86-.48-9.15-1.45-12.85-.96-3.71-2.3-6.92-4.02-9.63-1.71-2.71-3.69-4.99-5.93-6.82-2.24-1.84-4.66-3.3-7.24-4.4-2.59-1.08-5.27-1.86-8.04-2.33-2.77-.47-5.5-.7-8.18-.7-6.23,0-11.79,1.18-16.68,3.55-4.89,2.37-9.02,6.14-12.38,11.31h-.38c.06-.69.16-1.47.28-2.34.06-.75.13-1.65.19-2.71s.09-2.24.09-3.55V0H0v28.41h12.05v80.94H.93v28.32h62.24v-28.32h-11.12v-14.58c0-2.8.27-5.56.8-8.27.53-2.71,1.41-5.14,2.66-7.29s2.91-3.88,5-5.19c2.09-1.31,4.69-1.96,7.8-1.96,2.56,0,4.44.59,5.66,1.77,1.21,1.19,1.82,3.46,1.82,6.83v57.01h51.12v-28.32h-11.12Z"/>
      <path class="cls-1" d="M355.75,109.35c-1.37,0-2.43-.39-3.18-1.17-.74-.78-1.12-1.79-1.12-3.04V0h-52.06v28.41h12.06v10.28c0,.88.02,1.69.05,2.43.03.75.08,1.38.14,1.87.06.63.15,1.19.28,1.69h-.47c-1.37-1.62-3.12-3.06-5.23-4.3-1.81-1.06-4.15-2.04-7.01-2.95-2.87-.9-6.36-1.35-10.47-1.35-7.1,0-13.55,1.21-19.34,3.64-5.8,2.43-10.74,5.91-14.82,10.42-4.08,4.52-7.23,9.97-9.44,16.36-2.21,6.38-3.31,13.53-3.31,21.45s1.05,14.78,3.17,21.16c2.12,6.39,5.1,11.87,8.93,16.45,3.83,4.58,8.46,8.13,13.88,10.66,5.42,2.52,11.43,3.78,18.03,3.78,5.49,0,10.1-.85,13.84-2.57,3.73-1.71,6.76-3.63,9.06-5.75,2.68-2.49,4.8-5.29,6.36-8.41h.37c-.06.38-.12.81-.19,1.31-.06.44-.11.92-.14,1.45-.03.53-.04,1.11-.04,1.73,0,1,.25,2.07.74,3.22.5,1.16,1.31,2.23,2.43,3.23,1.13.99,2.56,1.82,4.3,2.48,1.75.65,3.87.98,6.36.98h32.9v-28.32h-6.08ZM311.36,96.92c-.88,2.3-2.04,4.22-3.51,5.75-1.46,1.52-3.13,2.66-5,3.41-1.87.74-3.77,1.12-5.7,1.12-2.24,0-4.3-.47-6.17-1.4-1.87-.94-3.49-2.25-4.86-3.93-1.37-1.68-2.43-3.69-3.17-6.03-.75-2.33-1.12-4.9-1.12-7.71,0-3.05.42-5.76,1.26-8.13.84-2.36,1.97-4.33,3.41-5.89,1.43-1.55,3.1-2.74,5-3.55,1.9-.81,3.91-1.21,6.03-1.21,2.49,0,4.68.51,6.58,1.54,1.9,1.03,3.49,2.43,4.77,4.21,1.28,1.77,2.23,3.83,2.85,6.16.62,2.34.94,4.82.94,7.43,0,3.18-.44,5.92-1.31,8.23Z"/>
      <path class="cls-1" d="M427.68,106.92c-.31.06-.67.09-1.08.09h-1.16c-1.81,0-3.26-.17-4.35-.51-1.09-.35-1.96-.95-2.62-1.82-.65-.88-1.09-2.11-1.3-3.7-.22-1.59-.33-3.6-.33-6.02V0h-52.06v28.41h12.06v68.69c0,6.36.57,11.8,1.73,16.31,1.15,4.52,2.71,8.32,4.67,11.41,1.96,3.08,4.28,5.54,6.96,7.38,2.68,1.84,5.56,3.24,8.65,4.2,3.08.97,6.26,1.61,9.53,1.92,3.27.31,6.53.47,9.77.47,3.05,0,5.57-.1,7.57-.28,1.12-.07,2.18-.16,3.17-.28v-31.41c-.43.07-.84.1-1.21.1Z"/>
      <path class="cls-1" d="M494.74,106.92c-.31.06-.67.09-1.07.09h-1.17c-1.81,0-3.25-.17-4.34-.51-1.09-.35-1.97-.95-2.62-1.82-.65-.88-1.09-2.11-1.31-3.7-.22-1.59-.33-3.6-.33-6.02V0h-52.05v28.41h12.05v68.69c0,6.36.58,11.8,1.73,16.31,1.16,4.52,2.71,8.32,4.68,11.41,1.96,3.08,4.28,5.54,6.96,7.38,2.68,1.84,5.56,3.24,8.64,4.2,3.09.97,6.26,1.61,9.54,1.92,3.27.31,6.52.47,9.76.47,3.05,0,5.58-.1,7.57-.28,1.12-.07,2.18-.16,3.18-.28v-31.41c-.44.07-.84.1-1.22.1Z"/>
      <g>
        <circle class="cls-1" cx="183.37" cy="86.5" r="53.5"/>
        <path class="cls-2" d="M212.96,86.36c-5.01.05-9.72,1.33-13.84,3.57-6.52,3.52-11.57,9.4-14,16.5-1,2.88-1.56,5.97-1.61,9.18-.01.16-.01.32-.01.49v-.49c-.05-3.11-.58-6.1-1.53-8.91-2.77-8.35-9.15-15.05-17.28-18.26-3.23-1.28-6.75-2.01-10.43-2.07-.17-.01-.33-.01-.49-.01h.49c3.79-.06,7.4-.83,10.72-2.19,7.12-2.89,12.85-8.47,15.96-15.47,1.61-3.61,2.52-7.59,2.56-11.79.04,4.4,1.04,8.58,2.8,12.33,2.61,5.58,6.92,10.22,12.26,13.24,4.26,2.43,9.17,3.83,14.4,3.88Z"/>
      </g>
    </g>
  </g>
</svg>